<svg xmlns="http://www.w3.org/2000/svg" width="26.406" height="26.407" viewBox="0 0 26.406 26.407">
  <path id="instagram-glyph-1" d="M8.5,13.2a4.4,4.4,0,1,1,4.4,4.4,4.4,4.4,0,0,1-4.4-4.4m-2.379,0a6.78,6.78,0,1,0,6.78-6.78,6.78,6.78,0,0,0-6.78,6.78M18.667,6.155a1.585,1.585,0,1,0,1.585-1.584,1.585,1.585,0,0,0-1.585,1.584m-10.5,17.5A7.293,7.293,0,0,1,5.417,23.5,4.107,4.107,0,0,1,3.9,22.509a4.081,4.081,0,0,1-.988-1.518,7.293,7.293,0,0,1-.454-2.452c-.064-1.392-.077-1.51-.077-5.336s.014-3.943.077-5.336a7.327,7.327,0,0,1,.454-2.452A4.107,4.107,0,0,1,3.9,3.9a4.076,4.076,0,0,1,1.519-.988,7.293,7.293,0,0,1,2.452-.454c1.392-.064,1.51-.077,5.335-.077s3.943.014,5.336.077a7.327,7.327,0,0,1,2.452.454A4.094,4.094,0,0,1,22.51,3.9,4.1,4.1,0,0,1,23.5,5.416a7.293,7.293,0,0,1,.454,2.452c.064,1.393.077,1.51.077,5.336s-.013,3.943-.077,5.336a7.321,7.321,0,0,1-.454,2.452A4.372,4.372,0,0,1,20.991,23.5a7.293,7.293,0,0,1-2.452.454c-1.392.064-1.51.077-5.336.077s-3.943-.013-5.335-.077M7.76.08a9.685,9.685,0,0,0-3.2.613A6.479,6.479,0,0,0,2.216,2.216,6.461,6.461,0,0,0,.693,4.555,9.685,9.685,0,0,0,.08,7.76C.015,9.168,0,9.618,0,13.2s.015,4.036.08,5.444a9.685,9.685,0,0,0,.613,3.2,6.456,6.456,0,0,0,1.523,2.339,6.475,6.475,0,0,0,2.339,1.523,9.691,9.691,0,0,0,3.2.613c1.409.064,1.558.08,5.444.08s4.036-.015,5.444-.08a9.685,9.685,0,0,0,3.2-.613,6.751,6.751,0,0,0,3.562-3.562,9.658,9.658,0,0,0,.613-3.2c.064-1.409.079-1.558.079-5.444s-.015-4.036-.079-5.444a9.685,9.685,0,0,0-.613-3.2,6.493,6.493,0,0,0-1.523-2.339A6.475,6.475,0,0,0,21.553.693a9.669,9.669,0,0,0-3.2-.613C17.24.016,16.79,0,13.2,0S9.169.015,7.76.08" fill="#aaa"/>
</svg>
