<svg xmlns="http://www.w3.org/2000/svg" width="20.547" height="20.547" viewBox="0 0 20.547 20.547">
  <path id="instagram-glyph-1" d="M6.55,10.274A3.424,3.424,0,1,1,10.274,13.7,3.424,3.424,0,0,1,6.55,10.274M5,10.274A5.275,5.275,0,1,0,10.274,5,5.275,5.275,0,0,0,5,10.274m9.527-5.485a1.233,1.233,0,1,0,1.233-1.232,1.233,1.233,0,0,0-1.233,1.232m-8.4,13.547a5.675,5.675,0,0,1-1.908-.354,3.2,3.2,0,0,1-1.182-.768,3.175,3.175,0,0,1-.768-1.181,5.675,5.675,0,0,1-.354-1.908c-.05-1.083-.06-1.408-.06-4.152s.011-3.068.06-4.152a5.7,5.7,0,0,1,.354-1.908,3.2,3.2,0,0,1,.768-1.182,3.172,3.172,0,0,1,1.182-.768A5.675,5.675,0,0,1,6.123,1.91c1.083-.05,1.408-.06,4.151-.06s3.068.011,4.152.06a5.7,5.7,0,0,1,1.908.354,3.185,3.185,0,0,1,1.182.768,3.189,3.189,0,0,1,.768,1.182,5.675,5.675,0,0,1,.354,1.908c.05,1.084.06,1.408.06,4.152s-.01,3.068-.06,4.152a5.7,5.7,0,0,1-.354,1.908,3.4,3.4,0,0,1-1.95,1.949,5.675,5.675,0,0,1-1.908.354c-1.083.05-1.408.06-4.152.06s-3.068-.01-4.151-.06M6.038.062A7.536,7.536,0,0,0,3.544.539a5.041,5.041,0,0,0-1.52,1.185A5.027,5.027,0,0,0,.539,3.544,7.536,7.536,0,0,0,.062,6.038C.012,7.134,0,7.484,0,10.274s.012,3.14.062,4.236A7.536,7.536,0,0,0,.539,17a5.023,5.023,0,0,0,1.185,1.52,5.038,5.038,0,0,0,1.52,1.185,7.54,7.54,0,0,0,2.494.477c1.1.05,1.446.062,4.236.062s3.14-.012,4.236-.062A7.536,7.536,0,0,0,17,20.008a5.253,5.253,0,0,0,3-3,7.515,7.515,0,0,0,.477-2.494c.05-1.1.061-1.446.061-4.236s-.012-3.14-.061-4.236a7.536,7.536,0,0,0-.477-2.494,5.052,5.052,0,0,0-1.185-1.52A5.038,5.038,0,0,0,17,.539,7.524,7.524,0,0,0,14.51.062C13.415.012,13.065,0,10.275,0S7.134.012,6.038.062" fill="#383838"/>
</svg>
