<svg xmlns="http://www.w3.org/2000/svg" width="18.157" height="18.157" viewBox="0 0 18.157 18.157">
  <path id="Trazado_193" data-name="Trazado 193" d="M6.652,10.558A15.281,15.281,0,0,0,13.3,17.505l2.219-2.219a1,1,0,0,1,1.029-.242,11.506,11.506,0,0,0,3.6.575,1.012,1.012,0,0,1,1.009,1.009v3.52a1.012,1.012,0,0,1-1.009,1.009A17.147,17.147,0,0,1,3,4.009,1.012,1.012,0,0,1,4.009,3h3.53A1.012,1.012,0,0,1,8.548,4.009a11.459,11.459,0,0,0,.575,3.6,1.012,1.012,0,0,1-.252,1.029Z" transform="translate(-3 -3)" fill="#383838"/>
</svg>
