<svg xmlns="http://www.w3.org/2000/svg" width="29.985" height="24.361" viewBox="0 0 29.985 24.361">
  <path id="Trazado_1" data-name="Trazado 1" d="M20.035.005V0h1.406l.514.1a5.5,5.5,0,0,1,.933.262A6.635,6.635,0,0,1,23.7.744a7.713,7.713,0,0,1,.711.441,4.376,4.376,0,0,1,.568.47.787.787,0,0,0,.776.13,10.379,10.379,0,0,0,1.136-.338q.608-.216,1.2-.487t.725-.343l.135-.081.005-.008.027-.014L29.012.5l.027-.014.027-.014.005-.008L29.08.46l.008-.005.005-.008L29.12.438l.027-.005-.005.041-.008.041L29.12.554l-.014.041-.014.027L29.08.649l-.014.041A.941.941,0,0,0,29.039.5a4.535,4.535,0,0,1-.257.541,6.763,6.763,0,0,1-.608.96,4.719,4.719,0,0,1-.654.735q-.292.251-.387.351a1.161,1.161,0,0,1-.23.189l-.135.089-.027.014-.027.014-.005.008L26.7,3.7l-.008.005-.005.008-.027.014-.027.014-.005.008-.008.005-.008.005-.005.008L26.6,3.78l-.008.005-.008.005-.005.008h.135l.757-.162a13.548,13.548,0,0,0,1.447-.392L29.647,3l.081-.027.041-.014.027-.014.027-.014.027-.014.027-.014.054-.008.054-.005v.054l-.014.005-.014.008-.005.008-.008.005-.008.005-.005.008L29.926,3,29.918,3l-.008.005-.005.008-.005.008-.008.005-.014.027-.014.027-.008.005-.343.46a3.5,3.5,0,0,1-.365.46q-.027.008-.076.081a7.75,7.75,0,0,1-.573.6,13.609,13.609,0,0,1-1.033.938,1.28,1.28,0,0,0-.514,1.017q-.008.6-.062,1.357t-.2,1.636a19.5,19.5,0,0,1-.46,1.987,18.068,18.068,0,0,1-.757,2.163,16.552,16.552,0,0,1-.933,1.593q-.487.538-.592,1.42t-.525,1.1q-.419.514-1.06,1.157t-.7.7q-.062.059-.53.443t-1,.773a11.572,11.572,0,0,1-.979.641q-.446.257-1.076.587a12.5,12.5,0,0,1-1.357.616q-.73.284-1.541.527a14.077,14.077,0,0,1-1.568.379q-.757.135-1.717.23l-.96.095v.014H8.571v-.014l-.23-.014q-.23-.014-.379-.027t-1.122-.149q-.973-.135-1.528-.27t-1.649-.514a16.048,16.048,0,0,1-1.574-.765q-.776-.384-.973-.487t-.438-.249l-.243-.149L.13,21.717l-.008-.005-.008-.005L.108,21.7l-.027-.014-.027-.014-.005-.008-.008-.005-.008-.005-.005-.008-.005-.008-.008-.005H0v-.054l.027.005.027.008.122.014q.122.014.662.041t1.149,0a12.09,12.09,0,0,0,1.244-.122,14.013,14.013,0,0,0,1.5-.324,11.088,11.088,0,0,0,1.59-.546q.722-.319,1.027-.476a10,10,0,0,0,.925-.573l.622-.419.005-.008.008-.005.008-.005.005-.008.005-.008.008-.005.008-.005.005-.008.027-.008L9,19.116l.005-.027.008-.027.008-.005.005-.008-.216-.014L8.4,19.008a4.065,4.065,0,0,1-.635-.122,6.1,6.1,0,0,1-.933-.324,7.191,7.191,0,0,1-.973-.514,4.79,4.79,0,0,1-.684-.495q-.208-.195-.541-.552a5.471,5.471,0,0,1-.573-.738,6.632,6.632,0,0,1-.465-.573L3.366,14.9l-.014-.041-.014-.041-.008-.027-.005-.027.041.005.041.008.3.041a6.609,6.609,0,0,0,.933.027,7.222,7.222,0,0,0,.579-.054q.243-.041.3-.054l.054-.014.068-.014L6,14.7l.005-.008.008-.005.008-.005.005-.008-.054-.014-.054-.014-.054-.014-.054-.014L5.759,14.6q-.054-.014-.189-.054t-.73-.3a5.583,5.583,0,0,1-.946-.5,6.536,6.536,0,0,1-.671-.533,7.652,7.652,0,0,1-.695-.752A5.408,5.408,0,0,1,1.552,11.4a6.5,6.5,0,0,1-.446-1.163,6.277,6.277,0,0,1-.195-1.122l-.049-.568.027.005.027.008.027.014.027.014L1.3,8.6l.027.014.419.189a5.287,5.287,0,0,0,1.041.324q.622.135.744.149l.122.014h.243L3.588,9.28,3.58,9.274l-.008-.005-.005-.008-.005-.008-.008-.005-.008-.005-.005-.008L3.512,9.22l-.027-.014L3.78,9.2l-.008-.005-.008-.005-.005-.008-.027-.014L3.7,9.152,3.7,9.144l-.233-.173A3.546,3.546,0,0,1,3,8.531q-.243-.27-.487-.568a4.384,4.384,0,0,1-.433-.635,7.7,7.7,0,0,1-.4-.56,6.1,6.1,0,0,1-.316-1.046A5.956,5.956,0,0,1,1.244,4.38,6.555,6.555,0,0,1,1.271,3.5a5.743,5.743,0,0,1,.162-.525A6.426,6.426,0,0,1,1.785,1.7l.23-.514.014-.041.014-.041L2.05,1.1,2.055,1.1l.005-.008.008-.005.008.005.005.008.005.008.008.005.008.005.005.008.005.008.008.005.014.027.014.027.008.005.005.008.365.406q.365.406.565.906a5.084,5.084,0,0,0,.554.519.4.4,0,0,1,.135.124,5.519,5.519,0,0,0,.541.479q.46.379,1.2.579T7.476,5.5a16.093,16.093,0,0,0,1.947.579q1.041.392,1.46.514t1.433.311q1.014.189,1.528.243t.7.062l.189.005-.005-.041-.008-.041L14.668,7.1a6.354,6.354,0,0,1-.054-.946,6.205,6.205,0,0,1,.095-1.122,6.647,6.647,0,0,1,.284-1.041,5.561,5.561,0,0,1,.37-.546,8.325,8.325,0,0,1,.481-.722,5.53,5.53,0,0,1,.771-.538A5.686,5.686,0,0,1,17.7.511,7.031,7.031,0,0,1,18.519.3a5.229,5.229,0,0,1,.565-.23,3.007,3.007,0,0,0,.351-.062Z" fill="#aaa"/>
</svg>
