<svg xmlns="http://www.w3.org/2000/svg" width="23.332" height="18.956" viewBox="0 0 23.332 18.956">
  <path id="Trazado_1" data-name="Trazado 1" d="M15.59,0V0h1.094l.4.08a4.276,4.276,0,0,1,.726.2,5.163,5.163,0,0,1,.631.295,6,6,0,0,1,.553.343,3.405,3.405,0,0,1,.442.366.613.613,0,0,0,.6.1,8.076,8.076,0,0,0,.584-.263q.473-.168.936-.379T22.423.48l.105-.063,0-.006L22.553.4l.021-.011L22.6.379l.021-.011,0-.006.006,0,.006,0,0-.006.021-.006.021,0,0,.032L22.669.4l-.011.032-.011.032-.011.021L22.627.5l-.011.032A.732.732,0,0,0,22.6.621a3.529,3.529,0,0,1-.2.421,5.262,5.262,0,0,1-.473.747,3.672,3.672,0,0,1-.509.572q-.227.2-.3.274a.9.9,0,0,1-.179.147l-.105.069-.021.011-.021.011,0,.006-.006,0-.006,0,0,.006-.021.011-.021.011,0,.006-.006,0-.006,0,0,.006,0,.006-.006,0-.006,0,0,.006h.105l.589-.126A10.542,10.542,0,0,0,22.5,2.525l.568-.189.063-.021.032-.011.021-.011.021-.011.021-.011.021-.011.042-.006.042,0v.042l-.011,0-.011.006,0,.006-.006,0-.006,0,0,.006,0,.006-.006,0-.006,0,0,.006,0,.006-.006,0-.011.021-.011.021-.006,0-.267.358a2.957,2.957,0,0,1-.284.358q-.021.006-.059.063a6.03,6.03,0,0,1-.446.469,10.589,10.589,0,0,1-.5.73,1,1,0,0,0-.4.791q-.006.467-.048,1.056T20.765,7.5a15.174,15.174,0,0,1-.358,1.546,14.059,14.059,0,0,1-.589,1.683,13.113,13.113,0,0,1-.726,1.473q-.379.652-.694,1.1t-.642.552q-.326.4-.525.9t-.547.547q-.048.046-.412.345t-.778.6a9,9,0,0,1-.762.5q-.347.2-.537.457a9.962,9.962,0,0,1-1.056.48q-.568.221-1.2.41a10.953,10.953,0,0,1-1.22.295q-.589.105-1.336.179l-.747.074v.011H6.669v-.011l-.179-.011q-.179-.011-.295-.021T5.323,18.5q-.757-.105-1.189-.21t-1.283-.4a12.487,12.487,0,0,1-1.458-.6q-.6-.3-.757-.379T.295,17.02L.105,16.9l0-.006-.006,0-.006,0,0-.006-.021-.011-.021-.011,0-.006-.006,0-.006,0,0-.006,0-.006-.006,0H0v-.042l.021,0,.021.006.095.011q.095.011.515.032t.594,0a9.407,9.407,0,0,0,.968-.095,10.9,10.9,0,0,0,1.168-.252,8.627,8.627,0,0,0,1.237-.425q.562-.248.5-.37a7.783,7.783,0,0,0,.719-.446l.484-.326,0-.006.006,0,.006,0,0-.006,0-.006.006,0,.006,0,0-.006.021-.006.021,0,0-.021.006-.021.006,0,0-.006-.168-.011-.326-.021a3.163,3.163,0,0,1-.494-.095,4.745,4.745,0,0,1-.726-.252,5.6,5.6,0,0,1-.757-.4,3.727,3.727,0,0,1-.532-.385q-.162-.152-.421-.429a4.257,4.257,0,0,1-.446-.574,5.161,5.161,0,0,1-.362-.68l-.175-.383-.011-.032L2.6,11.529l-.006-.021,0-.021.032,0,.032.006.231.032a5.142,5.142,0,0,0,.726.021,5.62,5.62,0,0,0,.684-.042q.189-.032.231-.042l.042-.011.053-.011.053-.011,0-.006.006,0,.006,0,0-.006L4.65,11.4l-.042-.011-.042-.011-.042-.011-.042-.011q-.042-.011-.147-.042t-.568-.231A4.344,4.344,0,0,1,3.03,10.7a5.085,5.085,0,0,1-.522-.414A5.954,5.954,0,0,1,1.967,9.7a4.208,4.208,0,0,1-.526-.531,5.054,5.054,0,0,1-.347-.9A4.584,4.584,0,0,1,.943,7.09L.9,6.648l.021,0,.021.006.021.011.021.011.021.011.021.011.326.147a4.114,4.114,0,0,0,.51.252q.484.105.579.116l.095.011H3.03l0-.006-.006,0-.006,0,0-.006L3,7.2,3,7.2l-.006,0,0-.006-.021-.011-.021-.011,0-.006-.006,0-.006,0,0-.006L2.9,7.132l-.021-.011,0-.006L2.7,6.981a2.759,2.759,0,0,1-.362-.343q-.189-.21-.379-.442A3.412,3.412,0,0,1,1.62,5.7a5.993,5.993,0,0,1-.311-.669,4.749,4.749,0,0,1-.246-.514,4.635,4.635,0,0,1-.095-.51,5.1,5.1,0,0,1,.021-.684,4.469,4.469,0,0,1,.126-.642,5,5,0,0,1,.274-.757l.179-.4L1.578.594,1.588.563l.006,0,0-.006,0-.006.006,0,.006,0,0,.006,0,.006.006,0,.006,0,0,.006,0,.006.006,0L1.662.9l.011.021.006,0,0,.006.284.316q.284.316.673.7a3.956,3.956,0,0,0,.431.4.308.308,0,0,1,.105.1A4.3,4.3,0,0,0,3.6,2.53q.358.295.936.684t1.283.768a12.522,12.522,0,0,0,1.515.684q.51.305,1.136.4t1.115.242q.789.147,1.189.189t.547.048l.147,0,0-.032-.006-.032-.042-.263a4.944,4.944,0,0,1-.042-.736,4.528,4.528,0,0,1,.074-.573,5.172,5.172,0,0,1,.221-.51,4.327,4.327,0,0,1,.288-.659,6.478,6.478,0,0,1,.374-.562,4.537,4.537,0,0,1,.6-.652,4.425,4.425,0,0,1,.542-.6,5.471,5.471,0,0,1,.573-.4,4.068,4.068,0,0,1,.673-.179A2.34,2.34,0,0,0,15.59,0Z" fill="#383838"/>
</svg>
