<svg xmlns="http://www.w3.org/2000/svg" width="167.596" height="61.14" viewBox="0 0 167.596 61.14">
  <g id="Grupo_458" data-name="Grupo 458" transform="translate(8273.07 10779.621)">
    <g id="Grupo_457" data-name="Grupo 457" transform="translate(363 168)">
      <g id="Grupo_456" data-name="Grupo 456" transform="translate(-8636.07 -10946.621)">
        <rect id="_1" data-name="1" width="111.367" height="6.498" transform="translate(27.013 53.641)" fill="#df3727"/>
        <g id="box" transform="translate(84.597 0.541)">
          <text id="box-2" data-name="box" transform="translate(0 41)" fill="#b3abb5" font-size="54" font-family="ParagonBlack, Paragon"><tspan x="0" y="0">box</tspan></text>
          <path id="Color_Overlay" data-name="Color Overlay" d="M23.92,29.576a13.3,13.3,0,0,1-.783,4.617,10.43,10.43,0,0,1-2.3,3.7,10.549,10.549,0,0,1-3.753,2.457,13.584,13.584,0,0,1-5.157.591,14.605,14.605,0,0,1-5.265-.564,10.173,10.173,0,0,1-3.726-2.4A9.786,9.786,0,0,1,.727,34.628,13.946,13.946,0,0,1,0,30.038V-.04H8.044V10.922a23.447,23.447,0,0,1,4.59-.486,14.709,14.709,0,0,1,4.563.675,9.093,9.093,0,0,1,5.586,5.535,13.417,13.417,0,0,1,.537,4.968ZM11.932,34.682a3.275,3.275,0,0,0,3.051-1.377,6.5,6.5,0,0,0,.537-3.429V21.722a4.573,4.573,0,0,0-.972-3.267,3.741,3.741,0,0,0-2.508-1,14.069,14.069,0,0,0-4,.756V29.984a6.243,6.243,0,0,0,.537,3.348A3.3,3.3,0,0,0,11.932,34.682ZM39.31,10.436q6.48,0,9.234,2.589T51.3,21.776v8.046a16.011,16.011,0,0,1-.648,4.671,9.492,9.492,0,0,1-2.079,3.7,9.731,9.731,0,0,1-3.7,2.457,15.265,15.265,0,0,1-5.562.591,14.371,14.371,0,0,1-5.319-.591,10.019,10.019,0,0,1-3.7-2.457,10.191,10.191,0,0,1-2.187-3.7,14.362,14.362,0,0,1-.729-4.671V21.56a13.471,13.471,0,0,1,.729-4.536,9.282,9.282,0,0,1,2.187-3.51,9.9,9.9,0,0,1,3.7-2.268A15.667,15.667,0,0,1,39.31,10.436Zm0,24.354a3.262,3.262,0,0,0,3.024-1.4A6.478,6.478,0,0,0,43.2,29.93V21.452a5.06,5.06,0,0,0-.972-3.294A3.547,3.547,0,0,0,39.31,16.97,3.232,3.232,0,0,0,36.259,18.4a6.677,6.677,0,0,0-.537,3.429v8.154a6.53,6.53,0,0,0,.537,3.4A3.253,3.253,0,0,0,39.31,34.79ZM79.564,11.54l-8.64,14.634L79.564,41H71.44l-4.59-8.208L62.26,41H53.536l8.64-14.526L53.536,11.54h8.316l4.7,8.316,4.7-8.316Z" transform="translate(1.622)" fill="#393b3e"/>
        </g>
        <text id="red" transform="translate(0 40)" fill="#df3727" font-size="53" font-family="ParagonBlack, Paragon"><tspan x="0" y="0">red</tspan></text>
      </g>
    </g>
  </g>
</svg>
