<?xml version="1.0" encoding="utf-8"?>
<!-- Generator: Adobe Illustrator 23.0.2, SVG Export Plug-In . SVG Version: 6.00 Build 0)  -->
<svg version="1.1" id="Layer_1" xmlns="http://www.w3.org/2000/svg" xmlns:xlink="http://www.w3.org/1999/xlink" x="0px" y="0px"
	 viewBox="0 0 167.9 61.1" style="enable-background:new 0 0 167.9 61.1;" xml:space="preserve">
<style type="text/css">
	.st0{fill:#AAAAAA;}
	.st1{enable-background:new    ;}
</style>
<g id="Grupo_458_1_" transform="translate(8273.07 10779.621)">
	<g id="Grupo_457_1_" transform="translate(363 168)">
		<g id="Grupo_456_1_" transform="translate(-8636.07 -10946.621)">
			<rect id="_1_1_" x="26.2" y="53.4" class="st0" width="111.4" height="6.5"/>
			<g id="box_1_" transform="translate(84.597 0.541)">
				<g class="st1">
					<path class="st0" d="M24.8,29.7c0,1.7-0.3,3.2-0.8,4.6c-0.5,1.4-1.3,2.7-2.3,3.7c-1,1-2.3,1.9-3.8,2.5
						c-1.5,0.6-3.2,0.9-5.2,0.9c-2,0-3.8-0.3-5.3-0.9c-1.5-0.6-2.7-1.4-3.7-2.4c-1-1-1.7-2.2-2.2-3.6s-0.7-2.9-0.7-4.6V-0.2h8v11
						c1.6-0.3,3.1-0.5,4.6-0.5c1.7,0,3.2,0.2,4.6,0.7s2.6,1.1,3.6,2.1c1,0.9,1.8,2.1,2.3,3.5c0.6,1.4,0.8,3.1,0.8,5V29.7z
						 M12.8,34.5c1.5,0,2.5-0.5,3.1-1.4c0.6-0.9,0.8-2.1,0.8-3.4v-8.2c0-1.5-0.3-2.6-1-3.3s-1.6-1-2.8-1c-1,0-2.4,0.3-4,0.8v11.8
						c0,1.3,0.3,2.4,0.8,3.3C10.3,34,11.3,34.5,12.8,34.5z"/>
					<path class="st0" d="M40.2,10.2c4.3,0,7.4,1,9.2,2.9s2.8,4.7,2.8,8.5v8c0,1.7-0.2,3.2-0.6,4.7c-0.4,1.4-1.1,2.7-2.1,3.7
						s-2.2,1.9-3.7,2.5c-1.5,0.6-3.4,0.9-5.6,0.9c-2.1,0-3.8-0.3-5.3-0.9c-1.5-0.6-2.7-1.4-3.7-2.5c-1-1-1.7-2.3-2.2-3.7
						c-0.5-1.4-0.7-3-0.7-4.7v-8.3c0-1.7,0.2-3.2,0.7-4.5s1.2-2.5,2.2-3.5c1-1,2.2-1.7,3.7-2.3S38.1,10.2,40.2,10.2z M40.2,34.6
						c1.4,0,2.4-0.5,3-1.4c0.6-0.9,0.9-2.1,0.9-3.5v-8.5c0-1.4-0.3-2.5-1-3.3s-1.6-1.2-2.9-1.2c-1.5,0-2.5,0.5-3.1,1.4
						c-0.6,1-0.8,2.1-0.8,3.4v8.2c0,1.3,0.3,2.5,0.8,3.4C37.7,34.1,38.7,34.6,40.2,34.6z"/>
					<path class="st0" d="M80.7,11.6l-8.6,14.6l8.6,14.5h-8.4l-4.6-8.2l-4.6,8.2h-8.4l8.6-14.5l-8.6-14.6H63l4.7,8.3l4.7-8.3H80.7z"
						/>
				</g>
				<path id="Color_Overlay_1_" class="st0" d="M24.8,29.4c0,1.6-0.3,3.1-0.8,4.6c-0.5,1.4-1.3,2.6-2.3,3.7
					c-1.1,1.1-2.3,1.9-3.8,2.5c-1.7,0.5-3.4,0.7-5.2,0.6c-1.8,0.1-3.6-0.1-5.3-0.6c-1.4-0.5-2.7-1.3-3.7-2.4c-1-1-1.7-2.1-2.2-3.3
					c-0.5-1.5-0.7-3-0.7-4.6V-0.2h8v11c1.5-0.3,3-0.5,4.6-0.5c1.5,0,3.1,0.2,4.6,0.7c2.6,0.9,4.7,2.9,5.6,5.5c0.5,1.6,0.7,3.3,0.5,5
					L24.8,29.4z M12.8,34.5c1.2,0.1,2.4-0.4,3.1-1.4c0.5-1.1,0.7-2.3,0.5-3.4v-8.2c0.1-1.2-0.2-2.3-1-3.3c-0.7-0.6-1.6-1-2.5-1
					c-1.4,0.1-2.7,0.3-4,0.8v11.8c-0.1,1.1,0.1,2.3,0.5,3.3C10.2,34.2,11.5,34.7,12.8,34.5z M40.2,10.2c4.3,0,7.4,0.9,9.2,2.6
					c1.8,1.7,2.8,4.6,2.8,8.8v8c0,1.6-0.2,3.2-0.6,4.7c-0.4,1.4-1.1,2.6-2.1,3.7c-1,1.1-2.3,1.9-3.7,2.5C43.9,41,42,41.2,40.2,41
					c-1.8,0.1-3.6-0.1-5.3-0.6c-1.4-0.5-2.7-1.4-3.7-2.5c-1-1.1-1.7-2.3-2.2-3.7c-0.5-1.5-0.7-3.1-0.7-4.7v-8.3
					c0-1.5,0.2-3.1,0.7-4.5c0.5-1.3,1.2-2.5,2.2-3.5c1.1-1,2.3-1.8,3.7-2.3C36.6,10.5,38.4,10.2,40.2,10.2z M40.2,34.6
					c1.2,0.1,2.3-0.4,3-1.4c0.6-1,0.9-2.2,0.9-3.5v-8.5c0.1-1.2-0.3-2.3-1-3.3c-0.7-0.8-1.8-1.3-2.9-1.2c-1.2-0.1-2.4,0.4-3.1,1.4
					c-0.5,1.1-0.7,2.3-0.5,3.4v8.2c-0.1,1.2,0.1,2.3,0.5,3.4C37.8,34.2,39,34.7,40.2,34.6z M80.4,11.3L71.8,26l8.6,14.8h-8.1
					l-4.6-8.2l-4.6,8.2h-8.7L63,26.3l-8.6-14.9h8.3l4.7,8.3l4.7-8.3L80.4,11.3z"/>
			</g>
			<g class="st1">
				<path class="st0" d="M21.7,10.7L18,17.9h-4.3c-0.5,0-1.1,0-1.6,0.1c-0.5,0.1-1,0.3-1.4,0.5c-0.4,0.3-0.7,0.6-1,1.1
					c-0.2,0.5-0.4,1.1-0.4,1.9v18.2h-8V21.6c0-1.5,0.3-2.9,0.8-4.2c0.5-1.3,1.3-2.5,2.4-3.4c1.1-1,2.5-1.8,4.1-2.4
					c1.7-0.6,3.6-0.9,5.9-0.9h0.4H21.7z"/>
				<path class="st0" d="M45.3,27.2H29.8c0,0.7,0,1.5,0.1,2.4c0,0.9,0.2,1.7,0.5,2.4c0.3,0.7,0.7,1.4,1.2,1.9
					c0.6,0.5,1.4,0.7,2.4,0.7c0.7,0,1.3-0.1,1.8-0.3c0.5-0.2,0.8-0.5,1.1-0.8c0.3-0.3,0.5-0.6,0.6-1c0.1-0.3,0.3-0.6,0.4-0.9h7.3
					c-0.2,1.3-0.5,2.5-1,3.6c-0.5,1.1-1.2,2-2.1,2.7c-0.9,0.7-2,1.3-3.3,1.7c-1.3,0.4-3,0.6-4.8,0.6c-2.1,0-3.9-0.4-5.4-1.1
					c-1.5-0.7-2.7-1.7-3.6-2.9c-0.9-1.2-1.6-2.6-2-4.1c-0.4-1.6-0.6-3.2-0.6-4.8v-6.5c0-1.6,0.2-3.1,0.7-4.5s1.2-2.5,2.1-3.5
					c1-1,2.2-1.7,3.6-2.3c1.5-0.5,3.2-0.8,5.2-0.8c2.2,0,4.1,0.3,5.5,1c1.5,0.7,2.6,1.6,3.5,2.7c0.9,1.1,1.5,2.5,1.8,4
					c0.3,1.5,0.5,3.1,0.5,4.7V27.2z M38.2,21.6c0-0.7,0-1.4-0.1-2.1c-0.1-0.7-0.2-1.4-0.5-2S37,16.4,36.4,16
					c-0.6-0.4-1.4-0.6-2.4-0.6c-1.5,0-2.6,0.5-3.2,1.4c-0.7,0.9-1,2.3-1,4.1v1.5h8.4V21.6z"/>
				<path class="st0" d="M73.6-0.5v29.3c0,1.7-0.3,3.2-0.8,4.6c-0.5,1.4-1.3,2.7-2.3,3.7c-1,1-2.3,1.9-3.7,2.4
					c-1.5,0.6-3.2,0.9-5.1,0.9c-2,0-3.8-0.3-5.2-0.8c-1.5-0.6-2.7-1.4-3.7-2.4c-1-1-1.7-2.2-2.2-3.6c-0.5-1.4-0.7-2.9-0.7-4.5v-8.6
					c0-3.3,1.1-5.9,3.3-7.7c2.2-1.9,5.5-2.8,10-2.9c0.4,0,0.8,0,1.2,0c0.4,0,0.8,0,1.2,0.1V-0.5H73.6z M61.7,33.6
					c1.5,0,2.5-0.4,3-1.2c0.5-0.8,0.8-2,0.8-3.6V16.6c-1.1-0.3-2.2-0.4-3.1-0.4c-1.3,0-2.4,0.3-3.3,1c-0.9,0.7-1.3,1.8-1.3,3.6V29
					c0,1.5,0.3,2.6,0.8,3.4C59.2,33.2,60.2,33.6,61.7,33.6z"/>
			</g>
		</g>
	</g>
</g>
</svg>
